<?xml version="1.0" standalone="no"?>
<!DOCTYPE svg PUBLIC "-//W3C//DTD SVG 20010904//EN"
 "http://www.w3.org/TR/2001/REC-SVG-20010904/DTD/svg10.dtd">
<svg version="1.0" xmlns="http://www.w3.org/2000/svg"
 width="1157.000000pt" height="1157.000000pt" viewBox="0 0 1157.000000 1157.000000"
 preserveAspectRatio="xMidYMid meet">
<metadata>
Created by potrace 1.14, written by Peter Selinger 2001-2017
</metadata>
<g transform="translate(0.000000,1157.000000) scale(0.100000,-0.100000)"
fill="#000000" stroke="none">
<path d="M2845 11251 c-3 -5 -1 -12 4 -16 5 -3 8 -14 6 -25 -2 -12 0 -18 5
-15 9 6 8 24 -3 42 -4 6 -1 14 5 16 9 4 10 6 1 6 -6 1 -14 -3 -18 -8z"/>
<path d="M2866 11181 c-7 -11 3 -41 13 -41 4 0 8 7 8 15 0 8 -4 15 -9 15 -5 0
-6 5 -3 10 3 6 4 10 1 10 -3 0 -7 -4 -10 -9z"/>
<path d="M2873 11116 c4 -10 7 -20 7 -22 0 -2 8 -4 18 -4 13 0 14 2 4 9 -8 4
-13 12 -12 17 1 5 -4 10 -11 13 -8 2 -10 -2 -6 -13z"/>
<path d="M2888 11068 c14 -14 16 -32 2 -23 -6 3 -7 -1 -4 -9 3 -9 10 -16 16
-16 5 0 6 -9 3 -20 -3 -11 -3 -20 2 -20 5 0 8 -16 8 -35 -1 -19 1 -35 4 -35 3
0 6 -10 7 -22 2 -50 9 -88 14 -88 3 0 6 -10 7 -22 1 -13 4 -34 8 -48 3 -14 8
-36 11 -50 3 -14 7 -33 10 -43 3 -10 8 -32 10 -50 3 -18 7 -41 8 -52 2 -11 4
-20 5 -20 1 0 4 -13 6 -28 2 -16 11 -59 19 -95 8 -37 18 -83 21 -102 3 -19 10
-51 15 -70 5 -19 11 -51 14 -70 2 -19 7 -44 9 -55 2 -11 8 -38 12 -60 10 -46
12 -54 15 -57 1 -2 3 -16 5 -33 1 -16 4 -30 5 -30 1 0 4 -9 6 -20 1 -11 5 -30
8 -42 3 -13 9 -33 12 -45 3 -13 7 -34 9 -48 4 -24 14 -80 20 -110 2 -8 4 -15
5 -15 1 0 3 -11 5 -25 2 -14 6 -36 9 -50 3 -14 8 -38 11 -54 3 -16 10 -37 16
-47 6 -12 5 -20 -1 -24 -7 -4 -7 -12 -2 -18 15 -22 32 -68 22 -62 -7 4 -7 -3
0 -20 10 -26 13 -41 26 -120 8 -49 12 -70 14 -70 1 0 3 -9 5 -20 8 -41 17 -91
22 -115 3 -14 6 -31 6 -37 0 -7 3 -13 7 -13 4 0 7 -6 8 -12 1 -26 19 -140 22
-148 1 -3 3 -9 5 -15 1 -5 3 -12 4 -15 1 -3 4 -16 7 -30 2 -14 9 -50 15 -80 6
-30 12 -64 13 -75 1 -11 5 -26 10 -33 4 -7 5 -16 2 -19 -3 -3 -1 -12 5 -20 6
-7 9 -13 6 -13 -3 0 6 -51 20 -112 13 -62 27 -133 30 -158 3 -25 9 -53 14 -62
5 -9 9 -27 9 -41 0 -13 3 -27 6 -30 4 -4 8 -21 10 -39 1 -18 5 -44 8 -58 3
-14 13 -63 22 -110 9 -47 19 -92 22 -100 3 -8 6 -22 8 -30 21 -111 28 -147 29
-155 1 -5 3 -12 4 -15 2 -3 4 -14 6 -25 15 -84 30 -159 42 -205 2 -8 5 -26 8
-40 2 -14 7 -41 11 -60 4 -19 8 -45 8 -57 1 -13 4 -23 7 -23 3 0 6 -6 7 -12 1
-18 10 -68 17 -98 12 -49 13 -55 15 -55 1 0 3 -13 5 -30 1 -16 3 -30 4 -30 4
0 11 -36 17 -80 3 -22 11 -43 17 -47 9 -6 9 -8 -1 -8 -9 0 -10 -5 -3 -18 5
-10 12 -36 15 -58 3 -21 12 -70 21 -109 9 -38 18 -81 20 -95 4 -24 7 -42 20
-105 6 -28 10 -49 18 -115 2 -14 7 -31 11 -38 4 -7 5 -12 2 -12 -2 0 0 -15 5
-32 5 -18 12 -49 15 -68 4 -19 7 -39 8 -45 2 -5 6 -32 11 -60 4 -27 10 -54 14
-60 3 -5 7 -21 8 -35 2 -14 10 -56 19 -95 9 -38 17 -81 19 -95 6 -32 13 -65
15 -65 2 0 7 -32 11 -72 2 -18 6 -33 9 -33 4 0 7 -12 7 -27 1 -16 4 -39 7 -53
17 -65 25 -123 20 -131 -3 -5 0 -9 5 -9 6 0 11 -11 11 -23 0 -13 3 -27 6 -30
4 -4 8 -21 10 -39 6 -53 11 -82 17 -98 7 -15 13 -47 23 -110 3 -19 8 -42 11
-50 5 -14 17 -71 28 -135 3 -16 8 -41 11 -55 3 -14 7 -34 9 -45 2 -11 4 -20 5
-20 2 0 3 -9 14 -75 8 -47 14 -75 16 -75 1 0 4 -13 6 -30 3 -16 9 -34 14 -39
8 -8 231 -9 310 -1 19 2 71 6 115 9 75 6 97 8 200 21 22 3 78 8 124 10 46 3
87 8 92 11 5 3 9 0 9 -7 0 -8 4 -8 15 1 8 7 15 8 15 3 0 -5 17 -9 38 -9 39 -1
200 -13 242 -19 14 -1 48 -6 75 -10 94 -13 110 -15 190 -30 117 -21 136 -25
180 -37 22 -5 49 -12 60 -14 87 -16 450 -157 475 -184 3 -3 19 -12 35 -20 17
-8 32 -17 35 -20 3 -3 23 -17 45 -31 22 -15 52 -38 67 -52 15 -14 29 -23 31
-21 9 9 143 -134 144 -154 1 -12 -1 -21 -5 -20 -9 3 -88 -48 -97 -62 -3 -6
-11 -8 -16 -5 -5 4 -9 1 -9 -4 0 -6 -6 -11 -14 -11 -7 0 -25 -9 -39 -20 -14
-11 -32 -20 -41 -20 -9 0 -16 -4 -16 -10 0 -5 -7 -10 -15 -10 -8 0 -15 -5 -15
-10 0 -6 -3 -9 -7 -8 -11 2 -66 -24 -74 -35 -3 -5 -8 -7 -10 -6 -2 2 -16 -5
-31 -15 -15 -10 -31 -15 -37 -12 -5 3 -11 3 -13 -1 -4 -11 -87 -53 -104 -53
-8 0 -14 -5 -14 -12 0 -6 -3 -8 -6 -5 -4 3 -16 1 -28 -5 -11 -7 -23 -13 -26
-14 -15 -3 -50 -18 -82 -36 -26 -13 -38 -15 -38 -7 0 7 -8 2 -19 -9 -10 -12
-20 -19 -23 -16 -3 2 -28 -4 -57 -15 -28 -12 -51 -18 -51 -15 0 4 -11 -1 -25
-10 -14 -9 -25 -14 -25 -10 0 4 -6 2 -12 -3 -7 -6 -21 -9 -30 -8 -10 2 -18 0
-18 -5 0 -4 -18 -10 -39 -14 -22 -3 -42 -12 -44 -18 -4 -10 -6 -10 -6 -1 -1 9
-10 8 -36 -3 -19 -8 -35 -11 -35 -8 0 4 -6 2 -12 -4 -7 -5 -26 -11 -43 -13
-16 -2 -35 -7 -42 -12 -7 -5 -17 -6 -23 -2 -5 3 -10 2 -10 -3 0 -6 -9 -8 -20
-5 -11 3 -20 1 -20 -4 0 -6 -10 -9 -22 -9 -13 1 -27 0 -33 -3 -5 -3 -19 -7
-30 -8 -11 -1 -33 -5 -50 -8 -16 -4 -42 -7 -57 -7 -16 -1 -28 -5 -28 -9 0 -4
-16 -6 -35 -4 -20 1 -38 -1 -40 -5 -3 -4 -15 -6 -27 -6 -13 1 -31 -2 -40 -6
-12 -6 -18 -5 -18 4 0 9 -3 10 -8 2 -4 -6 -17 -10 -30 -9 -13 1 -25 -1 -27 -4
-2 -4 -22 -6 -44 -5 -23 0 -41 -2 -41 -5 0 -3 -42 -6 -93 -6 -50 0 -98 -4
-105 -9 -7 -5 -12 -4 -12 3 0 7 -5 9 -12 5 -7 -4 -42 -9 -78 -10 -36 -1 -70
-2 -76 -3 -11 -1 -11 -24 -1 -51 8 -19 18 -77 20 -110 1 -14 9 -30 17 -37 11
-9 12 -12 2 -13 -10 0 -10 -5 -2 -20 6 -11 8 -20 4 -20 -3 0 -1 -6 5 -13 6 -8
8 -16 5 -19 -3 -3 -1 -23 5 -44 11 -44 23 -103 24 -121 0 -7 3 -13 6 -13 3 0
6 -15 6 -32 -1 -18 3 -35 6 -38 4 -3 10 -23 12 -45 3 -22 8 -51 12 -65 4 -14
7 -38 8 -55 1 -16 5 -32 8 -35 4 -3 8 -21 10 -40 2 -19 7 -40 12 -47 5 -7 6
-17 3 -22 -4 -5 -2 -12 4 -16 6 -4 8 -10 6 -14 -3 -4 0 -25 6 -47 10 -39 13
-53 22 -110 3 -17 10 -52 16 -78 5 -25 13 -63 16 -83 14 -87 8 -84 151 -78
171 7 406 30 425 41 3 2 30 7 60 10 64 7 93 12 93 14 0 2 34 9 65 14 14 2 25
5 25 6 0 3 106 11 145 11 27 0 112 -6 230 -16 41 -4 81 -8 88 -8 6 0 12 -4 12
-9 0 -5 5 -6 10 -3 6 4 36 1 68 -6 31 -7 64 -13 72 -15 8 -1 22 -4 30 -7 8 -2
33 -7 55 -12 22 -4 46 -13 54 -19 8 -6 16 -9 18 -7 3 3 21 -3 88 -29 78 -30
201 -97 233 -127 7 -7 16 -13 20 -13 22 0 175 -168 205 -224 29 -55 29 -71 1
-102 -13 -14 -24 -29 -24 -33 0 -4 -11 -14 -25 -21 -14 -7 -25 -17 -25 -22 0
-4 -18 -27 -40 -49 -22 -23 -40 -46 -40 -52 0 -6 -2 -8 -5 -5 -3 3 -43 -32
-90 -77 -46 -46 -86 -80 -89 -77 -3 2 -8 -3 -12 -12 -3 -9 -10 -16 -15 -16 -6
0 -23 -12 -39 -28 -42 -39 -97 -82 -105 -82 -3 0 -13 -6 -20 -12 -33 -30 -45
-38 -55 -38 -5 0 -10 -4 -10 -9 0 -5 -15 -16 -34 -25 -18 -8 -39 -22 -46 -31
-7 -8 -16 -12 -21 -9 -5 3 -9 0 -9 -5 0 -6 -7 -11 -15 -11 -8 0 -15 -4 -15 -9
0 -5 -12 -14 -27 -21 -16 -6 -41 -19 -58 -29 -61 -35 -100 -55 -113 -57 -8 -1
-20 -11 -29 -21 -8 -10 -12 -12 -8 -6 6 13 -55 -15 -66 -30 -3 -5 -10 -9 -15
-8 -5 0 -29 -9 -53 -20 -24 -10 -50 -19 -57 -19 -8 0 -14 -5 -14 -12 0 -6 -3
-8 -7 -5 -3 4 -12 2 -20 -4 -7 -6 -13 -8 -13 -4 0 4 -11 0 -25 -9 -14 -9 -25
-14 -25 -10 0 4 -7 1 -15 -6 -8 -6 -19 -9 -25 -5 -5 3 -10 1 -10 -6 0 -7 -3
-9 -7 -6 -3 4 -12 2 -20 -4 -7 -6 -13 -8 -13 -4 0 4 -7 2 -15 -5 -8 -7 -15 -9
-15 -5 0 4 -7 2 -15 -5 -8 -6 -19 -9 -25 -5 -5 3 -10 1 -10 -5 0 -7 -7 -10
-15 -6 -8 3 -15 0 -15 -6 0 -6 -3 -9 -6 -6 -3 4 -20 2 -37 -4 -18 -5 -41 -11
-52 -13 -11 -2 -20 -4 -20 -5 0 -1 -7 -3 -15 -5 -48 -12 -68 -16 -90 -20 -14
-2 -40 -8 -58 -14 -18 -5 -34 -9 -36 -8 -3 1 -8 -1 -12 -6 -4 -4 -3 -7 2 -8
10 -1 40 -6 89 -15 44 -8 87 -15 113 -18 12 -1 24 -5 27 -8 3 -3 19 -4 35 -2
16 2 32 -1 35 -6 3 -5 11 -7 19 -4 7 3 24 1 37 -5 16 -5 31 -5 42 0 9 6 17 6
17 1 0 -5 6 -9 13 -9 6 0 53 -4 102 -8 50 -5 127 -9 172 -9 46 -1 83 -3 83 -6
0 -3 35 -4 77 -3 127 4 328 12 328 13 0 1 25 3 55 5 66 5 119 13 130 20 5 3
12 1 15 -5 5 -8 11 -8 20 0 7 6 17 10 21 9 5 -1 11 0 14 1 3 1 16 3 30 4 31 3
128 17 155 23 11 2 29 6 40 7 11 2 20 4 20 6 0 1 11 3 25 5 83 12 119 26 121
48 4 32 15 89 19 95 2 1 4 11 5 22 1 11 3 21 5 23 4 5 18 84 22 125 1 6 4 12
7 12 4 0 6 12 5 28 -1 15 2 32 6 37 5 6 11 26 14 45 4 19 8 40 10 45 12 39 25
102 31 145 2 14 4 25 5 25 2 0 4 9 6 20 1 11 5 31 8 45 10 43 18 85 19 98 0 6
4 12 9 12 5 0 7 4 3 9 -3 6 -1 29 5 53 10 38 19 82 24 113 1 6 5 16 9 23 5 6
6 12 3 12 -2 0 0 15 5 33 5 17 12 49 15 70 7 47 12 71 14 75 2 1 3 10 4 20 1
9 8 43 15 75 7 32 14 72 16 90 2 18 4 33 5 35 2 1 4 7 5 12 1 6 3 11 5 13 1 1
3 16 3 32 1 17 6 36 10 42 5 7 6 17 3 21 -2 4 -1 14 4 22 5 9 5 19 -2 27 -7 9
-7 13 0 13 5 0 13 7 16 16 4 9 2 13 -5 8 -8 -5 -8 -1 0 14 6 11 12 34 13 51 1
17 5 31 8 31 8 0 34 129 32 155 -5 54 -58 185 -74 185 -5 0 -7 4 -4 8 3 5 -6
20 -20 35 -13 14 -24 31 -24 37 0 6 -4 9 -9 5 -5 -3 -12 4 -16 15 -3 11 -11
20 -16 20 -5 0 -21 13 -36 28 -16 16 -36 31 -45 35 -10 3 -18 11 -18 17 0 5
-9 10 -19 10 -10 0 -21 7 -25 15 -3 8 -12 15 -21 15 -31 0 -13 30 63 108 105
110 135 142 170 190 16 23 32 38 36 35 3 -3 6 1 6 10 0 9 5 17 10 17 6 0 10 7
10 15 0 8 5 15 10 15 6 0 10 7 10 15 0 8 5 15 10 15 6 0 10 7 10 15 0 8 3 15
8 15 9 0 77 112 74 123 -1 4 2 7 7 7 4 0 34 53 65 117 32 65 62 126 67 135 5
10 9 26 9 37 0 10 6 21 13 24 8 3 13 16 12 29 -1 12 1 28 5 33 9 14 33 93 33
110 0 8 3 15 7 15 3 0 6 8 7 18 1 33 13 104 19 113 6 11 12 40 19 93 3 22 10
60 16 85 13 55 18 78 24 111 3 14 8 36 11 50 5 23 9 40 28 135 10 49 29 139
33 155 2 8 5 24 6 35 2 12 6 25 9 30 3 6 4 18 3 28 -2 9 0 17 3 17 6 0 9 18
15 93 1 15 5 27 9 27 3 0 5 8 3 17 -1 10 0 23 3 28 4 6 7 19 9 30 2 18 9 62
18 105 2 8 4 15 5 15 2 0 10 69 12 95 0 8 4 20 8 25 4 6 7 22 6 38 -1 15 2 27
6 27 4 0 4 7 1 17 -5 12 -3 14 8 8 12 -8 12 -6 0 8 -8 10 -9 17 -3 17 6 0 10
15 8 35 -2 19 0 32 5 29 5 -3 10 -2 10 3 1 4 3 21 5 36 1 16 7 34 13 40 12 16
9 166 -4 175 -6 4 -12 16 -13 27 -2 10 -12 30 -23 43 -10 14 -16 28 -13 33 3
5 -2 9 -10 9 -9 0 -16 4 -16 8 0 5 -9 19 -20 32 -11 13 -20 20 -20 15 0 -4
-13 7 -29 24 -16 17 -34 31 -41 31 -6 0 -8 5 -4 12 4 6 3 8 -4 4 -6 -3 -17 1
-25 9 -9 8 -20 15 -25 15 -5 0 -17 10 -28 21 -14 16 -15 23 -6 26 6 3 12 9 12
14 0 6 14 24 30 42 17 18 33 40 36 50 3 9 9 17 14 17 5 0 18 15 29 33 18 29
33 49 71 94 5 7 10 15 10 19 0 4 8 13 18 20 9 7 17 16 17 21 1 16 57 103 67
103 6 0 8 7 4 15 -3 8 -2 15 2 15 5 0 17 17 29 38 11 20 30 54 42 75 26 46 85
160 86 167 0 3 6 15 13 28 7 12 10 22 6 22 -3 0 -2 6 4 13 6 6 23 44 38 82 15
39 30 75 34 80 4 6 11 26 15 45 4 19 10 40 13 45 4 6 7 15 9 20 1 6 4 20 7 32
3 13 9 30 14 39 5 9 7 25 5 35 -3 11 0 19 6 19 6 0 8 7 4 17 -4 9 -2 14 3 10
6 -3 9 8 9 26 -1 18 3 41 8 52 6 10 11 33 12 50 2 16 4 30 5 30 1 0 3 9 5 20
1 11 7 38 12 60 5 22 9 50 8 63 -1 12 2 22 6 22 6 0 12 27 25 110 2 8 5 26 9
40 6 26 12 55 19 93 2 12 7 33 10 47 3 14 8 37 11 53 12 66 16 83 21 97 3 8 8
35 11 60 3 25 10 51 16 58 5 7 7 15 5 18 -3 3 -2 22 3 42 5 20 11 53 15 72 3
19 7 43 10 52 5 18 12 48 19 93 3 17 8 37 11 46 2 10 7 30 9 45 2 16 7 40 10
54 3 14 7 39 10 55 2 17 12 62 21 100 9 39 17 82 17 98 -1 15 3 27 7 27 3 0 7
6 7 13 0 6 4 30 8 52 4 22 9 49 10 60 2 11 4 20 5 20 3 0 10 56 11 78 0 9 4
17 8 17 8 0 10 9 13 55 1 14 5 25 9 25 3 0 5 11 4 25 -2 14 2 25 8 25 7 0 5 5
-3 10 -12 7 -12 10 -1 10 7 0 11 6 8 15 -4 8 -1 17 4 21 6 3 9 15 6 25 -3 10
-1 22 4 25 5 3 9 10 9 15 0 6 -5 7 -11 3 -6 -3 -3 5 6 20 10 14 14 26 10 26
-4 0 -3 6 4 13 8 10 7 17 -1 25 -9 9 -9 12 1 12 8 0 11 6 7 15 -3 8 -1 15 5
15 6 0 7 5 3 11 -4 8 -9 7 -15 -2 -4 -7 -5 -17 -3 -21 3 -4 0 -8 -6 -8 -7 0
-10 -7 -7 -15 4 -8 2 -17 -4 -20 -5 -4 -7 -11 -4 -16 4 -5 1 -9 -4 -9 -6 0
-10 -3 -10 -7 4 -22 -15 -72 -25 -66 -6 3 -8 3 -4 -2 4 -4 1 -22 -7 -40 -7
-19 -11 -36 -7 -39 3 -3 0 -6 -6 -6 -6 0 -13 -13 -17 -30 -4 -16 -10 -30 -15
-30 -4 0 -7 -8 -5 -17 1 -10 -5 -26 -14 -37 -9 -10 -14 -20 -12 -23 4 -6 -100
-214 -116 -231 -7 -7 -13 -18 -13 -24 0 -6 -8 -17 -17 -25 -10 -8 -11 -11 -4
-7 9 4 6 -6 -8 -24 -12 -18 -19 -32 -14 -32 4 0 0 -5 -10 -11 -9 -6 -15 -14
-12 -20 4 -5 1 -9 -4 -9 -6 0 -11 -8 -11 -17 0 -9 -3 -14 -6 -10 -3 3 -17 -15
-30 -39 -14 -25 -31 -53 -39 -61 -8 -8 -15 -19 -15 -24 0 -10 -10 -24 -42 -60
-10 -10 -18 -22 -18 -26 0 -5 -10 -20 -23 -35 -13 -15 -32 -39 -43 -54 -10
-14 -28 -37 -40 -50 -11 -13 -29 -35 -40 -50 -10 -15 -33 -42 -51 -60 -17 -19
-28 -34 -25 -34 4 0 -6 -11 -22 -25 -16 -14 -26 -25 -23 -25 3 0 -23 -29 -57
-65 -35 -35 -61 -67 -58 -70 3 -3 -2 -5 -11 -5 -8 0 -19 -9 -22 -20 -4 -11 -9
-19 -13 -17 -7 4 -42 -28 -42 -38 0 -3 -2 -5 -4 -6 -3 0 -35 -29 -71 -65 -37
-35 -72 -61 -77 -57 -6 3 -8 2 -5 -4 6 -9 -102 -113 -126 -122 -6 -2 -19 -14
-29 -25 -9 -12 -17 -18 -18 -14 0 3 -13 -6 -28 -20 -38 -37 -82 -73 -82 -67 0
2 -14 -9 -32 -25 -17 -16 -35 -27 -40 -24 -4 3 -8 1 -8 -4 0 -5 -33 -31 -72
-58 -40 -26 -74 -52 -76 -56 -2 -4 -10 -8 -17 -8 -8 0 -28 -13 -46 -30 -18
-16 -36 -27 -41 -24 -4 3 -8 2 -8 -3 0 -4 -27 -24 -60 -42 -33 -19 -60 -39
-60 -44 0 -4 -4 -6 -9 -3 -5 3 -20 -3 -34 -14 -14 -11 -30 -20 -36 -20 -5 0
-14 -8 -20 -17 -5 -10 -13 -17 -18 -17 -4 1 -26 -8 -48 -19 -22 -12 -43 -20
-47 -19 -5 1 -8 -3 -8 -9 0 -5 -4 -8 -9 -5 -5 4 -11 3 -13 -2 -1 -4 -52 -32
-113 -62 -60 -30 -111 -58 -113 -62 -2 -5 -9 -8 -16 -8 -7 0 -26 -6 -42 -14
-16 -8 -46 -21 -66 -30 -21 -9 -55 -24 -75 -33 -21 -10 -41 -18 -45 -19 -5 -1
-10 -3 -13 -4 -3 -1 -8 -3 -12 -4 -5 -1 -30 -12 -57 -24 -27 -12 -54 -22 -62
-22 -7 0 -15 -4 -18 -8 -3 -4 -28 -14 -55 -22 -28 -7 -51 -18 -51 -22 0 -5 -4
-7 -9 -3 -5 3 -12 1 -16 -5 -4 -6 -10 -8 -15 -5 -5 3 -11 1 -15 -5 -4 -6 -11
-8 -16 -4 -5 3 -16 1 -23 -5 -7 -6 -23 -13 -37 -15 -13 -3 -25 -5 -26 -7 -2
-1 -7 -3 -13 -4 -5 -1 -11 -3 -12 -4 -13 -11 -50 -8 -62 4 -8 8 -20 15 -26 15
-6 0 -13 7 -16 15 -4 8 -9 13 -14 10 -4 -2 -16 6 -27 18 -11 12 -30 29 -43 37
-13 8 -48 39 -78 68 -30 28 -57 52 -59 52 -2 0 -29 25 -60 55 -31 30 -66 62
-79 72 -13 10 -24 24 -24 32 0 8 -2 12 -6 9 -3 -3 -28 19 -57 50 -29 31 -63
68 -77 82 -62 66 -120 134 -120 141 0 4 -9 11 -20 14 -11 4 -18 10 -16 14 3 4
-6 15 -20 25 -13 11 -24 22 -24 27 0 4 -15 25 -34 45 -19 21 -32 43 -29 48 4
6 3 8 -2 4 -7 -7 -40 27 -44 44 -1 4 -11 18 -24 31 -38 40 -67 77 -67 86 0 5
-7 12 -16 15 -9 4 -14 9 -11 12 2 3 -5 16 -17 28 -21 23 -36 43 -66 86 -8 12
-47 66 -86 119 -39 53 -79 111 -89 129 -11 17 -23 32 -27 32 -4 0 -8 7 -8 15
0 8 -4 15 -9 15 -5 0 -14 14 -21 30 -7 17 -16 30 -21 30 -5 0 -9 7 -9 15 0 8
-4 15 -9 15 -5 0 -14 14 -21 30 -7 17 -16 30 -21 30 -5 0 -9 6 -9 13 0 7 -9
23 -20 35 -12 12 -18 22 -15 22 3 0 -5 15 -19 33 -15 19 -26 39 -26 45 0 7 -4
12 -10 12 -5 0 -10 6 -10 14 0 7 -7 19 -15 26 -8 7 -12 16 -9 21 3 5 1 9 -5 9
-6 0 -13 11 -17 25 -3 14 -12 25 -20 25 -8 0 -14 5 -14 11 0 5 6 7 13 4 6 -4
3 1 -7 9 -11 9 -21 23 -22 32 -1 9 -10 24 -20 35 -9 10 -13 19 -8 19 5 0 4 4
-1 8 -11 7 -59 85 -85 137 -8 17 -20 36 -27 43 -7 7 -13 19 -13 26 0 8 -7 19
-15 26 -9 7 -13 15 -10 18 3 3 -2 14 -12 24 -9 10 -12 18 -7 18 5 0 4 4 -2 8
-14 10 -64 101 -64 118 0 8 -4 14 -10 14 -5 0 -10 6 -10 14 0 8 -8 22 -17 32
-10 10 -17 18 -15 18 6 2 -11 41 -24 56 -7 8 -13 17 -13 20 0 9 -14 45 -20 50
-3 3 -17 28 -30 55 -28 57 -26 53 -36 83 -4 12 -11 22 -16 22 -5 0 -9 5 -9 12
0 6 -20 53 -44 102 -24 50 -52 110 -62 133 -10 24 -23 43 -27 43 -5 0 -6 3 -3
8 2 4 -9 36 -25 70 -15 34 -29 66 -30 70 0 4 -5 13 -11 20 -6 7 -8 15 -5 18 3
4 -1 13 -9 21 -8 8 -12 19 -9 24 4 5 2 9 -2 9 -7 0 -34 56 -38 80 -1 3 -10 24
-22 48 -12 23 -16 39 -10 35 7 -3 4 3 -6 14 -10 11 -19 30 -20 42 -1 11 -5 21
-9 21 -4 0 -8 9 -8 20 0 11 -4 20 -9 20 -5 0 -12 7 -15 16 -3 9 -2 12 5 8 7
-4 7 -1 0 12 -19 34 -61 136 -61 149 0 8 -5 15 -10 17 -6 2 -12 13 -13 26 0
12 -4 22 -7 22 -4 0 -7 6 -8 13 -1 20 -7 41 -13 52 -4 6 -12 28 -18 50 -7 22
-16 49 -21 60 -21 49 -41 112 -39 121 2 5 -4 23 -12 39 -8 17 -15 37 -14 45 0
8 -6 21 -13 29 -7 7 -11 20 -8 28 3 8 2 11 -4 8 -5 -3 -9 3 -9 12 1 36 -8 74
-19 85 -7 7 -12 22 -12 35 0 15 -6 23 -17 23 -13 0 -14 -3 -5 -12z"/>
<path d="M4339 10388 c-1 -7 -11 -104 -12 -120 -1 -10 -4 -18 -7 -18 -8 0 -14
-119 -14 -295 0 -195 9 -294 39 -415 8 -30 16 -67 19 -82 2 -14 9 -36 16 -47
6 -12 8 -21 4 -21 -3 0 -1 -6 5 -13 6 -8 8 -17 4 -21 -4 -4 -2 -10 5 -14 6 -5
13 -17 15 -27 2 -11 9 -31 14 -45 6 -14 9 -28 6 -32 -2 -5 1 -8 6 -8 6 0 11
-9 11 -20 0 -11 5 -20 10 -20 6 0 10 -7 10 -15 0 -8 9 -30 20 -50 11 -20 20
-42 20 -51 0 -8 4 -13 9 -9 5 3 15 -11 21 -30 6 -19 17 -41 23 -48 18 -19 37
-50 43 -69 4 -10 10 -18 15 -18 5 0 9 -7 9 -15 0 -8 5 -15 10 -15 6 0 10 -5
10 -11 0 -6 6 -16 13 -23 6 -8 19 -24 27 -36 8 -12 21 -28 28 -36 6 -7 12 -18
12 -25 0 -7 3 -9 7 -6 3 4 14 -4 23 -18 34 -51 162 -177 285 -280 33 -27 62
-53 63 -57 2 -5 9 -8 15 -8 7 0 24 -11 39 -25 15 -14 34 -25 43 -25 9 0 13 -4
10 -10 -3 -5 -1 -10 5 -10 7 0 24 -8 38 -19 43 -30 298 -168 317 -171 11 -1
42 -13 72 -26 17 -8 45 -17 62 -20 17 -4 34 -11 37 -15 3 -5 18 -9 33 -9 15 0
32 -5 39 -12 7 -7 12 -9 12 -6 0 3 17 2 38 -3 75 -19 87 -21 115 -22 15 0 27
-3 27 -7 0 -7 16 -8 180 -10 69 -1 141 0 160 3 116 19 258 54 274 68 6 5 16 9
23 9 8 0 33 9 55 20 23 11 48 20 55 20 7 0 13 4 13 8 0 7 48 29 60 28 3 -1 16
9 29 21 13 12 28 20 33 17 4 -3 8 -1 8 4 0 5 26 26 58 47 58 38 63 42 117 92
17 16 44 38 59 51 16 12 26 22 23 22 -4 0 17 24 46 53 29 28 66 70 82 92 17
22 32 42 35 45 4 3 22 28 41 55 18 28 36 52 39 55 3 3 18 26 33 53 15 26 32
47 37 47 6 0 9 3 8 8 -1 4 4 18 12 32 35 61 47 84 80 147 19 38 38 70 43 71 4
2 7 12 7 23 0 10 4 19 9 19 5 0 12 14 16 30 4 17 12 30 18 30 7 0 6 4 -3 10
-12 8 -12 10 3 16 9 3 17 11 17 16 0 15 -48 -17 -110 -74 -14 -13 -29 -24 -33
-26 -4 -1 -14 -5 -22 -8 -8 -4 -15 -13 -15 -21 0 -8 -4 -12 -8 -9 -5 3 -18 -3
-28 -12 -16 -16 -107 -77 -234 -158 -19 -12 -45 -25 -57 -29 -13 -3 -23 -11
-23 -17 0 -6 -3 -8 -6 -5 -4 4 -20 -3 -35 -14 -16 -11 -29 -17 -29 -12 0 4 -4
3 -8 -2 -10 -15 -169 -85 -176 -78 -3 4 -6 1 -6 -5 0 -7 -3 -11 -7 -10 -5 1
-21 -5 -38 -12 -16 -7 -36 -12 -42 -11 -7 1 -13 -3 -13 -9 0 -5 -5 -10 -11
-10 -5 0 -7 5 -4 11 8 13 -37 -12 -47 -26 -5 -6 -8 -5 -8 4 0 11 -3 11 -15 1
-8 -7 -15 -9 -15 -4 0 5 -5 2 -10 -6 -8 -12 -10 -12 -10 -1 0 9 -4 10 -12 4
-15 -11 -28 -11 -47 1 -11 7 -12 6 -6 -5 8 -12 6 -12 -8 0 -14 11 -17 11 -17
0 0 -9 -3 -10 -8 -4 -9 13 -42 13 -61 1 -9 -6 -12 -5 -8 1 4 6 -14 11 -46 12
-51 2 -73 5 -167 17 -25 3 -55 6 -67 7 -13 0 -23 4 -23 7 0 3 -10 6 -22 7 -30
1 -71 11 -103 23 -19 7 -24 7 -19 -1 4 -7 -3 -6 -17 2 -13 7 -33 14 -44 16
-10 2 -22 7 -25 11 -3 4 -18 8 -34 9 -16 1 -33 8 -38 15 -4 7 -8 10 -8 6 0 -5
-22 1 -50 11 -27 11 -50 16 -50 13 0 -4 -4 -2 -8 5 -4 6 -16 13 -27 15 -11 1
-22 5 -25 9 -5 5 -79 42 -90 44 -21 6 -59 26 -65 35 -3 5 -11 8 -16 5 -5 -4
-9 -1 -9 5 0 6 -4 8 -10 5 -5 -3 -10 -2 -10 3 0 5 -13 15 -30 22 -16 7 -30 16
-30 20 0 4 -13 13 -30 20 -16 7 -30 17 -30 22 0 5 -5 6 -10 3 -6 -3 -13 1 -16
9 -3 9 -12 16 -20 16 -8 0 -14 5 -14 10 0 6 -7 10 -15 10 -8 0 -15 5 -15 10 0
6 -4 10 -10 10 -5 0 -20 9 -32 19 -42 36 -65 56 -112 95 -60 50 -184 174 -244
245 -26 30 -55 63 -64 73 -10 10 -15 18 -11 18 3 0 -4 8 -15 19 -12 10 -22 23
-22 29 0 6 -4 12 -8 14 -10 4 -92 115 -92 125 -1 4 -14 24 -30 43 -17 19 -30
40 -30 47 0 7 -4 13 -10 13 -5 0 -10 5 -10 10 0 6 -12 29 -27 53 -15 23 -27
45 -28 49 0 4 -6 13 -12 20 -7 6 -13 18 -13 25 0 7 -4 13 -10 13 -5 0 -10 9
-10 19 0 11 -4 21 -8 23 -4 2 -27 44 -50 93 -24 50 -50 102 -57 116 -8 14 -12
29 -8 33 3 3 1 6 -5 6 -7 0 -12 6 -12 14 0 8 -5 27 -12 43 -6 15 -12 32 -12
37 -1 9 -25 22 -27 14z"/>
</g>
</svg>
